<svg fill="none" viewBox="0 0 135 23" xmlns="http://www.w3.org/2000/svg">
    <path d="M19 4.18871V0.417404H25.5895C27.2372 0.417404 28.6435 0.712145 29.8083 1.30163C30.9801 1.88402 31.8714 2.71143 32.4822 3.78388C33.1001 4.84922 33.4091 6.10276 33.4091 7.54452C33.4091 8.99338 33.0966 10.2398 32.4716 11.2839C31.8466 12.3208 30.9411 13.1163 29.755 13.6702C28.576 14.2242 27.1484 14.5012 25.4723 14.5012L16.9815 14.4008V10.7938H24.7266C25.6073 10.7938 26.3388 10.6731 26.9212 10.4316C27.5035 10.1901 27.9368 9.82792 28.2209 9.34496C28.5121 8.86201 28.6577 8.26185 28.6577 7.54452C28.6577 6.82009 28.5121 6.20931 28.2209 5.71215C27.9368 5.21499 27.5 4.83856 26.9105 4.58288C26.3281 4.3201 25.593 4.18871 24.7053 4.18871H21.5945H19Z" />
    <path d="M36.669 21.8181V0H51.3707V3.80326H41.282V9.00212H50.6143V12.8054H41.282V18.0148H51.4133V21.8181H36.669Z" />
    <path d="M54.2072 3.80326V0H72.1262V3.80326H65.4465V21.8181H60.8869V3.80326H54.2072Z" />
    <path d="M88.5538 0H93.1667V14.169C93.1667 15.7599 92.7867 17.1519 92.0268 18.3451C91.274 19.5383 90.2193 20.4687 88.8627 21.1363C87.5062 21.7968 85.926 22.1271 84.122 22.1271C82.3109 22.1271 80.7271 21.7968 79.3705 21.1363C78.014 20.4687 76.9593 19.5383 76.2065 18.3451C75.4536 17.1519 75.0772 15.7599 75.0772 14.169V0H79.6902V13.7748C79.6902 14.6058 79.8712 15.3444 80.2335 15.9907C80.6028 16.637 81.1213 17.1448 81.7889 17.5141C82.4565 17.8835 83.2342 18.0681 84.122 18.0681C85.0169 18.0681 85.7946 17.8835 86.4551 17.5141C87.1227 17.1448 87.6376 16.637 87.9998 15.9907C88.3691 15.3444 88.5538 14.6058 88.5538 13.7748V0Z" />
    <path d="M96.962 21.8181V0H105.57C107.218 0 108.624 0.294742 109.789 0.884231C110.961 1.46662 111.852 2.29403 112.463 3.36648C113.081 4.43182 113.39 5.68535 113.39 7.12711C113.39 8.57598 113.077 9.82243 112.452 10.8665C111.827 11.9034 110.922 12.6989 109.735 13.2528C108.556 13.8068 107.129 14.0838 105.453 14.0838H99.6893V10.3764H104.707C105.588 10.3764 106.319 10.2557 106.902 10.0142C107.484 9.77272 107.917 9.41051 108.201 8.92756C108.493 8.44461 108.638 7.84444 108.638 7.12711C108.638 6.40268 108.493 5.79191 108.201 5.29475C107.917 4.79759 107.48 4.42116 106.891 4.16548C106.309 3.90269 105.574 3.7713 104.686 3.7713H101.575V21.8181H96.962ZM108.745 11.8892L114.167 21.8181H109.075L103.77 11.8892H108.745Z" />
    <path d="M134.899 0V21.8181H130.914L121.422 8.08595H121.262V21.8181H116.65V0H120.698L130.115 13.7216H130.307V0H134.899Z" />
    <path d="M23 15.417H28L32 21.417H27L23 15.417Z" />
    <path d="M10.968 11.2211L18.0036 0.417069L18.0067 22.0657L10.968 11.2211Z" />
    <path d="M2.81402 16.8593C2.61919 16.913 2.44673 16.9897 2.29664 17.0892C2.14389 17.1886 2.01484 17.311 1.9095 17.4562C1.80151 17.5987 1.71858 17.7628 1.66069 17.9484C1.60282 18.1314 1.57268 18.3346 1.57026 18.5581C1.56573 18.9758 1.66551 19.3441 1.8696 19.6629C2.07373 19.9791 2.37305 20.2272 2.76757 20.4071C3.15943 20.5869 3.64005 20.68 4.20941 20.6861C4.77877 20.6923 5.26394 20.6111 5.6649 20.4425C6.06586 20.2739 6.37315 20.0324 6.58677 19.7181C6.79773 19.4037 6.90554 19.031 6.91022 18.6C6.91446 18.2089 6.8489 17.8743 6.71355 17.5961C6.57557 17.3152 6.37966 17.1002 6.12583 16.9511C5.87203 16.7993 5.57087 16.7215 5.22233 16.7178L5.27802 16.3671L5.25517 18.4743L3.95415 18.4602L3.99123 15.04L5.02088 15.0512C5.73923 15.059 6.35484 15.2173 6.86771 15.5262C7.37791 15.8351 7.76981 16.2571 8.0434 16.7922C8.31433 17.3274 8.44608 17.9381 8.43863 18.6246C8.43033 19.3908 8.25408 20.0621 7.9099 20.6385C7.56306 21.2148 7.07526 21.6618 6.4465 21.9796C5.81511 22.2948 5.06841 22.4477 4.20638 22.4383C3.54389 22.4311 2.95428 22.3289 2.43755 22.1318C1.91818 21.9319 1.47946 21.6557 1.1214 21.3032C0.763344 20.9508 0.492373 20.5421 0.308491 20.0771C0.124609 19.6121 0.0355958 19.1095 0.0414515 18.5694C0.0464707 18.1065 0.118989 17.6762 0.259005 17.2786C0.396361 16.881 0.589099 16.5292 0.837218 16.2232C1.08537 15.9145 1.37945 15.6636 1.71948 15.4704C2.05685 15.2772 2.42804 15.1548 2.83306 15.1033L2.81402 16.8593Z" />
    <path d="M8.3793 13.7894L4.29265 13.7451L0.205995 13.7008L0.153961 8.19218L1.5787 8.20763L1.53773 11.987L3.48527 12.0081L3.52317 8.5121L4.94792 8.52754L4.91001 12.0235L6.86155 12.0447L6.9027 8.24939L8.32744 8.26483L8.3793 13.7894Z" />
    <path d="M1.70197 7.14627L0.277226 7.13082L0.350004 0.418179L1.77475 0.433626L1.74762 2.9359L8.49618 3.00907L8.47766 4.71716L1.7291 4.64399L1.70197 7.14627Z" />
</svg>